<svg width="121" height="95" viewBox="0 0 121 95" fill="none" xmlns="http://www.w3.org/2000/svg">
<path opacity="0.3" d="M120.577 49.0404C120.577 52.0225 119.928 54.9754 118.665 57.7305C117.403 60.4856 115.553 62.9889 113.22 65.0976C110.887 67.2063 108.118 68.879 105.071 70.0202C102.023 71.1614 98.7564 71.7487 95.4576 71.7487H85.4097V67.2071H95.4576C100.519 67.229 105.402 65.5194 109.127 62.4213C112.851 59.3232 115.142 55.0661 115.538 50.5046C115.934 45.9431 114.407 41.415 111.263 37.8293C108.119 34.2436 103.591 31.8659 98.5875 31.1735L94.6186 30.6103L94.3574 26.9861C93.9575 21.5285 91.5108 16.3573 87.4213 12.3263C83.3317 8.29537 77.8438 5.64567 71.8636 4.8147C65.8835 3.98373 59.7686 5.02118 54.5287 7.75575C49.2887 10.4903 45.2371 14.7585 43.0426 19.8556L41.048 24.47L36.1396 22.2763C34.573 21.5741 32.8492 21.2059 31.1006 21.2C29.0243 21.2004 26.991 21.7344 25.2376 22.7396C23.9929 23.4474 22.9164 24.3721 22.0711 25.4599C21.2258 26.5476 20.6285 27.7766 20.3141 29.0752L19.7464 31.3688L17.355 32.2771C13.0678 33.8958 9.53348 36.8074 7.35348 40.5165C5.17349 44.2255 4.48251 48.5028 5.39813 52.6205C6.31375 56.7383 8.7794 60.442 12.3755 63.1014C15.9716 65.7608 20.4759 67.2117 25.1221 67.2071H40.194V71.7487H25.1221C19.3197 71.7492 13.696 69.9337 9.20649 66.6108C4.71693 63.2879 1.63834 58.6624 0.493681 53.5201C-0.650974 48.3779 0.208906 43.0359 2.92725 38.4018C5.64559 33.7677 10.0547 30.1272 15.4057 28.0988C15.8642 26.2148 16.7318 24.4317 17.9581 22.853C19.1844 21.2743 20.7451 19.9313 22.5498 18.9019C25.1067 17.4359 28.0728 16.6592 31.1006 16.6628C33.6211 16.6666 36.1069 17.195 38.3652 18.207C40.9757 12.1487 45.7932 7.07599 52.0226 3.82625C58.2519 0.576515 65.5208 -0.656051 72.6295 0.331991C79.7382 1.32003 86.2617 4.46962 91.1235 9.26093C95.9852 14.0522 98.8945 20.1989 99.3713 26.6863C105.273 27.5165 110.652 30.2249 114.54 34.3235C118.429 38.422 120.569 43.6411 120.577 49.0404ZM65.3138 47.7097L78.6072 59.7269L82.1592 56.516L62.8018 39.0169L43.4394 56.516L46.9914 59.7269L60.2898 47.7097V94.4571H65.3138V47.7097Z" fill="black"/>
</svg>
